<svg id="Capa_1" data-name="Capa 1" xmlns="http://www.w3.org/2000/svg" viewBox="0 0 40 40"><defs><style>.cls-1{fill:#101425;}</style></defs><title>instagram</title><path class="cls-1" d="M20,13.27A6.76,6.76,0,1,0,26.76,20,6.76,6.76,0,0,0,20,13.27Z" transform="translate(0)"/><path class="cls-1" d="M29.26,5.77H10.74a5,5,0,0,0-5,5V29.28a5,5,0,0,0,5,5H29.26a5,5,0,0,0,5-5V10.77A5,5,0,0,0,29.26,5.77ZM20,28.77A8.74,8.74,0,1,1,28.74,20,8.74,8.74,0,0,1,20,28.77ZM30.21,12a1.87,1.87,0,1,1,1.87-1.86A1.87,1.87,0,0,1,30.21,12Z" transform="translate(0)"/><path class="cls-1" d="M36.05,0H4A4,4,0,0,0,0,4v32.1a4,4,0,0,0,4,4h32.1a4,4,0,0,0,4-4V4A4,4,0,0,0,36.05,0Zm.18,29.57a6.69,6.69,0,0,1-6.69,6.68H10.46a6.69,6.69,0,0,1-6.69-6.68V10.49A6.69,6.69,0,0,1,10.46,3.8H29.54a6.69,6.69,0,0,1,6.69,6.69Z" transform="translate(0)"/></svg>